<?xml version="1.0" encoding="iso-8859-1"?>
<!-- Generator: Adobe Illustrator 30.0.0, SVG Export Plug-In . SVG Version: 9.03 Build 0)  -->
<svg version="1.1" id="Layer_3" xmlns="http://www.w3.org/2000/svg" xmlns:xlink="http://www.w3.org/1999/xlink" x="0px" y="0px"
	 viewBox="0 0 64.8 57.6" style="enable-background:new 0 0 64.8 57.6;" xml:space="preserve">
<polygon style="fill:#2A103B;" points="59.84739,47.60481 62.80009,47.15553 63.05686,44.13862 59.71903,43.62513 
	59.78324,39.19606 63.05686,38.42579 63.05686,35.79402 59.84739,35.21632 59.71903,30.72309 62.99265,30.1454 62.99705,29.96638 
	63.05686,29.95283 63.02708,28.73323 63.05686,27.51368 62.99705,27.50013 62.99265,27.32112 59.71903,26.74342 59.84739,22.25013 
	63.05686,21.67244 63.05686,19.04072 59.78324,18.27046 59.71903,13.84138 63.05686,13.32789 62.80009,10.31099 59.84739,9.86165 
	59.78324,5.49684 63.18522,4.98329 63.05686,2.28737 59.78324,1.90223 44.37785,1.77388 42.70896,3.05763 42.5164,15.44612 
	40.33396,15.51033 38.986,11.14546 28.07383,11.0171 26.59751,15.70289 22.16843,15.63868 20.37119,9.60493 6.7631,9.60493 
	4.58066,15.63868 3.55363,15.63868 1.75632,17.30763 1.81101,28.73323 1.75632,40.15889 3.55363,41.82783 4.58066,41.82783 
	6.7631,47.86158 20.37119,47.86158 22.16843,41.82783 26.59751,41.76362 28.07383,46.44941 38.986,46.32106 40.33396,41.95619 
	42.5164,42.0204 42.70896,54.40882 44.37785,55.69264 59.78324,55.56422 63.05686,55.17909 63.18522,52.48317 59.78324,51.96968 "/>
<polygon style="fill:#2A103B;" points="2.12046,-38.6047 7.07593,-39.4542 10.40317,-43.41858 21.376,-43.20621 23.2166,-41.29481 
	42.61373,-41.08243 45.44543,-43.34779 56.70142,-43.20621 59.46233,-40.87006 62.64799,-39.59579 63.28512,-38.53391 
	64.55939,-33.29527 64.61706,-21.27888 63.07274,-14.88923 62.08165,-13.68576 59.32074,-12.97783 56.41825,-10.57089 
	45.44543,-10.42931 42.68452,-12.69466 23.07502,-12.62387 20.88045,-10.64168 10.26159,-10.64168 6.79276,-14.60606 
	2.26204,-15.31399 "/>
<g>
	<path style="fill:#FFFFFF;" d="M1.61137-15.67111v-22.53041c0-0.5674,0.4245-1.04837,0.98772-1.11912l3.97458-0.49665
		l2.72756-3.34724c0.33877-0.41579,0.84064-0.65453,1.37667-0.65453h10.07029c0.58204,0,1.12295,0.28265,1.45544,0.75839
		l1.21496,1.37493h19.11939l1.83115-1.58579c0.28719-0.33006,0.77094-0.54753,1.27839-0.54753H55.9583
		c0.42102,0,0.82949,0.15022,1.15014,0.42276l2.5045,2.12914l2.11206,0.59145c1.07834,0.30148,1.92107,1.16338,2.1992,2.24903
		l0.66777,2.60941c0.39383,1.53978,0.59319,3.12558,0.59319,4.7138v8.33428c0,1.58788-0.19936,3.17367-0.59319,4.71346
		l-0.66777,2.60976c-0.27812,1.086-1.12086,1.94826-2.1992,2.24938l-2.11206,0.5911l-2.5045,2.12879
		c-0.31995,0.27255-0.72911,0.42311-1.15014,0.42311H45.64753c-0.50676,0-0.99051-0.21748-1.32788-0.59668l-1.78166-1.537H23.41859
		l-1.21496,1.37528c-0.33249,0.47539-0.8734,0.75839-1.45544,0.75839H10.67791c-0.53603,0-1.03791-0.23839-1.37667-0.65453
		l-2.72756-3.34724l-3.97388-0.497C2.03657-14.62205,1.61137-15.10371,1.61137-15.67111z M64.11449-31.10346
		c0-1.49866-0.18821-2.99557-0.55973-4.44858l-0.66777-2.60906c-0.18332-0.71622-0.73957-1.28466-1.45056-1.48367l-2.22498-0.62316
		c-0.07458-0.02091-0.14359-0.05751-0.20214-0.1077l-2.59373-2.20477c-0.12756-0.10839-0.28997-0.16799-0.45726-0.16799H45.64753
		c-0.20145,0-0.39383,0.08643-0.52767,0.237l-2.0319,1.76563c-0.09759,0.08434-0.22166,0.1307-0.35062,0.1307H23.17741
		c-0.15335,0-0.29973-0.06587-0.4008-0.18088l-1.39689-1.58056c-0.01603-0.01812-0.03137-0.03729-0.04461-0.05751
		c-0.13104-0.19692-0.35062-0.31437-0.58692-0.31437H10.67791c-0.2133,0-0.41196,0.0948-0.54718,0.26l-2.86279,3.51383
		c-0.08643,0.10699-0.2119,0.176-0.34853,0.19308l-4.18718,0.52314c-0.02858,0.00349-0.05019,0.02788-0.05019,0.05681v22.53041
		c0,0.02928,0.02091,0.05298,0.05019,0.05646l4.18718,0.52349c0.13662,0.01673,0.26209,0.08643,0.34853,0.19308l2.86279,3.51383
		c0.13523,0.1652,0.33389,0.26,0.54718,0.26h10.07029c0.2363,0,0.45587-0.1178,0.58692-0.31437
		c0.01324-0.02021,0.02788-0.03903,0.04391-0.05786l1.39689-1.58091c0.10177-0.11501,0.24815-0.18054,0.4015-0.18054h19.55993
		c0.12896,0,0.25303,0.0467,0.35062,0.13035l1.98241,1.71684c0.18333,0.20005,0.37571,0.28649,0.57716,0.28649H55.9583
		c0.16729,0,0.3297-0.05995,0.45657-0.16799l2.59442-2.20477c0.05855-0.05019,0.12756-0.08713,0.20214-0.10804l2.22498-0.62316
		c0.71169-0.19866,1.26724-0.76676,1.45056-1.48332l0.66777-2.60906c0.37153-1.45335,0.55973-2.94992,0.55973-4.44858V-31.10346z"/>
	<path style="fill:#FFFFFF;" d="M22.55843-18.76253v-16.34723c0-0.14394,0.05786-0.28196,0.16102-0.38268
		c0.10316-0.10072,0.24188-0.15579,0.38617-0.15265l13.4224,0.29381c0.29067,0.00662,0.52348,0.24432,0.52348,0.53533v15.75927
		c0,0.29137-0.23281,0.52906-0.52348,0.53533l-13.4224,0.29416c-0.14429,0.00279-0.283-0.05228-0.38617-0.15265
		C22.61629-18.48092,22.55843-18.61824,22.55843-18.76253z M23.6291-34.56257v15.25286l12.35173-0.27045v-14.71195L23.6291-34.56257
		z"/>
	<path style="fill:#FFFFFF;" d="M22.55843-35.10976v-3.23222c0-0.29555,0.23979-0.53534,0.53534-0.53534H42.0633
		c0.23839,0,0.44751,0.15718,0.51373,0.38582c0.06692,0.22794-0.02579,0.474-0.22654,0.6012l-5.54713,3.52603
		c-0.24954,0.15858-0.58064,0.08504-0.73887-0.16451c-0.15823-0.24954-0.08504-0.58064,0.16451-0.73887l3.9941-2.53901H23.6291
		v2.69689c0,0.29555-0.23978,0.53534-0.53533,0.53534S22.55843-34.81421,22.55843-35.10976z"/>
	<path style="fill:#FFFFFF;" d="M22.55843-15.56446v-3.23222c0-0.29555,0.23979-0.53533,0.53534-0.53533
		s0.53533,0.23978,0.53533,0.53533v2.69689h16.59398l-3.9941-2.53866c-0.24955-0.15823-0.32273-0.48863-0.16451-0.73887
		c0.15823-0.24954,0.48933-0.32343,0.73887-0.1645l5.54713,3.52568c0.20075,0.12686,0.29416,0.36874,0.22654,0.60155
		c-0.06622,0.22793-0.27534,0.38547-0.51373,0.38547H23.09377C22.79822-15.02913,22.55843-15.26892,22.55843-15.56446z"/>
	<path style="fill:#FFFFFF;" d="M41.52796-15.56446c0-0.06273,0.01115-0.12617,0.03415-0.1882
		c2.92204-7.79302,2.92622-15.32535,0.00628-22.38473c-0.11153-0.2729,0.01743-0.58622,0.28997-0.69914
		c0.27324-0.11327,0.58691,0.01673,0.69984,0.28997c3.0259,7.31659,3.02799,15.1124,0.00628,23.17031
		c-0.10386,0.27673-0.41265,0.41684-0.68938,0.31297C41.6604-15.14414,41.52796-15.34768,41.52796-15.56446z"/>
	<path style="fill:#FFFFFF;" d="M9.61839-38.34198c0-0.29555,0.23979-0.53534,0.53534-0.53534h12.94004
		c0.29555,0,0.53533,0.23978,0.53533,0.53534c0,0.29555-0.23978,0.53534-0.53533,0.53534H10.15372
		C9.85817-37.80664,9.61839-38.04643,9.61839-38.34198z"/>
	<path style="fill:#FFFFFF;" d="M7.58788-34.81595c0-0.29555,0.23979-0.53533,0.53534-0.53533h11.28455
		c0.29555,0,0.53533,0.23978,0.53533,0.53533c0,0.29555-0.23978,0.53534-0.53533,0.53534H8.12322
		C7.82767-34.28062,7.58788-34.5204,7.58788-34.81595z"/>
	<path style="fill:#FFFFFF;" d="M7.58788-31.29027c0-0.29555,0.23979-0.53534,0.53534-0.53534h11.28455
		c0.29555,0,0.53533,0.23979,0.53533,0.53534s-0.23978,0.53534-0.53533,0.53534H8.12322
		C7.82767-30.75493,7.58788-30.99472,7.58788-31.29027z"/>
	<path style="fill:#FFFFFF;" d="M7.58788-22.98387c0-0.29555,0.23979-0.53533,0.53534-0.53533h11.28455
		c0.29555,0,0.53533,0.23978,0.53533,0.53533s-0.23978,0.53534-0.53533,0.53534H8.12322
		C7.82767-22.44853,7.58788-22.68832,7.58788-22.98387z"/>
	<path style="fill:#FFFFFF;" d="M7.58788-26.95287c0-0.29555,0.23979-0.53534,0.53534-0.53534h11.28455
		c0.29555,0,0.53533,0.23979,0.53533,0.53534s-0.23978,0.53533-0.53533,0.53533H8.12322
		C7.82767-26.41754,7.58788-26.65732,7.58788-26.95287z"/>
	<path style="fill:#FFFFFF;" d="M7.58788-19.09015c0-0.29555,0.23979-0.53534,0.53534-0.53534h11.28455
		c0.29555,0,0.53533,0.23979,0.53533,0.53534s-0.23978,0.53533-0.53533,0.53533H8.12322
		C7.82767-18.55481,7.58788-18.7946,7.58788-19.09015z"/>
	<path style="fill:#FFFFFF;" d="M9.61839-15.56446c0-0.29555,0.23979-0.53534,0.53534-0.53534h12.94004
		c0.29555,0,0.53533,0.23979,0.53533,0.53534s-0.23978,0.53533-0.53533,0.53533H10.15372
		C9.85817-15.02913,9.61839-15.26892,9.61839-15.56446z"/>
	<path style="fill:#FFFFFF;" d="M41.52796-15.56516c0-0.27324,0.20842-0.50675,0.48584-0.53255l15.41109-1.43523
		c2.66761-6.40241,2.6697-12.572,0.00209-18.84023l-15.41318-1.43592c-0.29416-0.02753-0.50954-0.2959-0.48375-0.58239
		c0.02788-0.2945,0.28858-0.51094,0.58273-0.4834l15.72964,1.4652c0.19378,0.01778,0.36246,0.13976,0.44054,0.31786
		c2.91715,6.65578,2.91785,13.47642,0.00209,20.27336c-0.07737,0.17984-0.24746,0.30392-0.44263,0.32204l-15.72964,1.4652
		c-0.29416,0.02719-0.55485-0.1889-0.58273-0.48375C41.52866-15.5317,41.52796-15.54843,41.52796-15.56516z"/>
	<path style="fill:#FFFFFF;" d="M48.50613-23.38885v-7.12839c0-0.27638,0.21051-0.50745,0.48584-0.5329l5.64959-0.52592
		c0.29416-0.02753,0.55485,0.1889,0.58273,0.48341c0.02509,0.29032-0.1896,0.5552-0.48375,0.58238l-5.16375,0.48096v6.15252
		l5.16375,0.48027c0.29416,0.02719,0.50745,0.29137,0.48375,0.58273c-0.02788,0.29416-0.28858,0.51094-0.58273,0.48375
		l-5.64959-0.52558C48.71664-22.8814,48.50613-23.11213,48.50613-23.38885z"/>
	<path style="fill:#FFFFFF;" d="M4.54595-17.3273v-19.25149c0-0.29555,0.23979-0.53533,0.53534-0.53533
		s0.53533,0.23978,0.53533,0.53533v19.25149c0,0.29555-0.23979,0.53533-0.53533,0.53533S4.54595-17.03176,4.54595-17.3273z"/>
	<path style="fill:#FFFFFF;" d="M57.2576-17.03036c0-0.27743,0.214-0.51163,0.49491-0.53324l2.18665-0.16451l1.87228-4.09796
		c0.08016-0.17496,0.24745-0.29346,0.43844-0.31088l2.2696-0.20842c0.29416-0.02719,0.55486,0.1896,0.58204,0.48445
		c0.02509,0.28927-0.1896,0.55485-0.48445,0.58204l-1.96011,0.17984l-1.87506,4.10353
		c-0.08155,0.17775-0.25233,0.29694-0.44681,0.31158l-2.50172,0.1882c-0.29485,0.0223-0.55206-0.19866-0.57437-0.49351
		C57.2583-17.00318,57.2576-17.01642,57.2576-17.03036z"/>
	<path style="fill:#FFFFFF;" d="M57.2576-36.87364c0-0.0136,0.0007-0.02719,0.0014-0.04078
		c0.0223-0.29485,0.27952-0.51582,0.57437-0.49386l2.50172,0.1882c0.19448,0.01464,0.36525,0.13418,0.44681,0.31158l1.87506,4.10389
		l1.96011,0.17984c0.29485,0.02718,0.51303,0.28718,0.48445,0.58204c-0.02718,0.2945-0.28788,0.51129-0.58204,0.48445
		l-2.2696-0.20842c-0.19099-0.01777-0.35828-0.13627-0.43844-0.31088l-1.87228-4.09831l-2.18665-0.16451
		C57.4716-36.36166,57.2576-36.59622,57.2576-36.87364z"/>
</g>
<g>
	<path style="fill:#FFFFFF;" d="M42.68851,1.77285c0.40417-0.40417,0.94222-0.62668,1.51359-0.62605l15.06362-0.00063
		l3.86443,0.33943c0.35263,0.0308,0.62416,0.32623,0.62354,0.68011v2.9857c0,0.35325-0.27029,0.64742-0.62103,0.68011
		L60.43109,6.0754l0.00063,3.55706l2.69907,0.2376c0.35263,0.0308,0.62354,0.3256,0.62291,0.67948v2.9857
		c-0.00063,0.35388-0.27029,0.64994-0.62354,0.68011l-2.69907,0.23634v3.55518l2.69844,0.23697
		c0.35263,0.0308,0.62417,0.32623,0.62354,0.68011v2.9857c-0.00063,0.35262-0.27091,0.64805-0.62103,0.68011l-2.70158,0.24389
		v3.55643l2.6997,0.23697c0.35263,0.0308,0.62354,0.3256,0.62354,0.68011v2.9857c-0.00063,0.35388-0.27029,0.64994-0.62291,0.67948
		l-2.69907,0.2376l-0.00063,3.55455l2.69844,0.23697c0.35263,0.0308,0.62417,0.32623,0.62354,0.68011v2.98569
		c-0.00063,0.35263-0.27028,0.64743-0.62103,0.68011l-2.70158,0.24389v3.55015l2.70158,0.24389
		c0.35137,0.03206,0.62103,0.32685,0.62103,0.68011v2.98569c-0.00063,0.35389-0.27091,0.64931-0.62354,0.68011l-2.69844,0.23697
		l0.00063,3.55455l2.69907,0.2376c0.35263,0.0308,0.62354,0.3256,0.62291,0.67948v2.98569
		c-0.00126,0.35326-0.27091,0.64806-0.62103,0.68011l-3.80346,0.34509l-15.12648,0.00314c-1.18045,0-2.1409-0.96045-2.1409-2.1409
		V3.28707C42.06183,2.71508,42.28435,2.17702,42.68851,1.77285z M62.38845,2.79176l-3.18747-0.28348L44.20211,2.51205
		c-0.41549,0.00063-0.77565,0.3608-0.77502,0.77502v51.02586c0,0.42743,0.34822,0.77565,0.77565,0.77565l15.48225-0.04211
		l2.70347-0.24451l-0.00063-1.73673l-2.69907-0.2376c-0.35263-0.0308-0.62354-0.3256-0.62291-0.67948v-4.80603
		c-0.00126-0.35326,0.26903-0.64994,0.62354-0.68011l2.69781-0.23634l0.00063-1.73673l-2.70158-0.24389
		c-0.35137-0.03205-0.62103-0.32685-0.62103-0.68011v-4.79723c-0.00063-0.35263,0.26903-0.64742,0.62103-0.68011l2.70158-0.24389
		v-1.7361l-2.69844-0.23697c-0.35263-0.0308-0.62417-0.32623-0.62354-0.68011V30.5845c0-0.35325,0.26903-0.64994,0.62291-0.67948
		l2.69907-0.2376l0.00063-1.73422l-2.6997-0.23697c-0.35263-0.0308-0.62354-0.3256-0.62354-0.68011V22.2101
		c0-0.35326,0.26966-0.64805,0.62103-0.68011l2.70158-0.24388V19.55l-2.69844-0.23697
		c-0.35263-0.0308-0.62354-0.3256-0.62354-0.68011l-0.00063-4.80665c-0.00063-0.35388,0.2684-0.64931,0.62354-0.68011
		l2.6997-0.23697l-0.00063-1.73422l-2.69907-0.2376c-0.35263-0.0308-0.62354-0.3256-0.62291-0.67948V5.45186
		c-0.00063-0.35263,0.2684-0.64805,0.62103-0.68011l2.70158-0.24388V2.79176z"/>
	<path style="fill:#FFFFFF;" d="M45.38947,4.91758c0.2288-0.2288,0.53303-0.35451,0.85737-0.35451h10.48073
		c0.37714,0,0.68262,0.30548,0.68262,0.68262s-0.30548,0.68262-0.68262,0.68262H46.40021l-0.00063,45.744h10.32737
		c0.37714,0,0.68262,0.30548,0.68262,0.68262c0,0.37714-0.30548,0.68262-0.68262,0.68262H46.24621
		c-0.6688,0-1.21188-0.54308-1.21188-1.21188l0.00063-46.05074c-0.00063-0.32245,0.12508-0.62668,0.35326-0.85611
		C45.38884,4.9182,45.38884,4.9182,45.38947,4.91758z M46.24621,51.67232l-0.00629,0.00628L46.24621,51.67232z"/>
	<path style="fill:#FFFFFF;" d="M6.04366,9.54006c0.31617-0.31617,0.75177-0.50663,1.21754-0.506h12.53866
		c0.76182,0,1.44068,0.51165,1.65125,1.24393l1.35394,4.71803h3.14409l1.13456-3.62746
		c0.22377-0.72034,0.88377-1.20559,1.63931-1.20559l9.46434-0.00063c0.75742,0.00063,1.41616,0.48588,1.63993,1.20622
		l1.13457,3.62746h1.78262c0.37714,0,0.68262,0.30548,0.68262,0.68262s-0.30548,0.68262-0.68262,0.68262h-2.28421
		c-0.29857,0.00063-0.56257-0.19423-0.6512-0.47897l-1.28479-4.10706c-0.04651-0.14834-0.18229-0.24766-0.33817-0.24766
		L28.723,11.52822c-0.15526,0.00063-0.29165,0.10057-0.33628,0.24703l-1.28479,4.10706
		c-0.08863,0.28348-0.352,0.47897-0.6512,0.47897h-4.15986c-0.30423,0-0.57262-0.20177-0.65622-0.49405l-1.49599-5.21208
		c-0.04337-0.15023-0.18291-0.25583-0.3388-0.25583H7.25993c-0.15526-0.00063-0.29417,0.10308-0.33943,0.2552l-1.49599,5.21334
		c-0.0836,0.29354-0.352,0.49405-0.65622,0.49405H3.76258l-1.17856,1.17856v22.4738l1.17856,1.17856l0.98748,0.00063
		c0.30423,0,0.572,0.20114,0.65622,0.49405l1.51359,5.2586c0.04337,0.15023,0.18291,0.25457,0.33943,0.2552h12.53992
		c0.15651-0.00063,0.29543-0.10685,0.33943-0.25645l1.50416-5.25671c0.08611-0.29228,0.35263-0.49468,0.65685-0.49468h4.14226
		c0.2992,0,0.56257,0.19423,0.65182,0.4796l1.29296,4.15169c0.04589,0.14771,0.18166,0.24702,0.33691,0.24765l9.46309,0.00063
		c0.154,0.00063,0.28977-0.09994,0.33691-0.24891l1.29359-4.15106c0.08989-0.28474,0.35263-0.4796,0.65182-0.4796h2.27541
		c0.37714,0,0.68262,0.30548,0.68262,0.68262s-0.30548,0.68262-0.68262,0.68262H40.9719l-1.14462,3.67146
		c-0.22503,0.71908-0.88251,1.20685-1.6393,1.20811l-9.46434-0.00063c-0.75554,0-1.41491-0.48463-1.64056-1.20685l-1.14399-3.67209
		h-3.12524l-1.3621,4.76266c-0.21309,0.73228-0.89068,1.24519-1.6525,1.24519H7.25931c-0.76057,0-1.44005-0.51102-1.65125-1.24268
		L4.2359,42.55872l-0.75617-0.00063c-0.18103,0-0.35451-0.07166-0.48274-0.19989l-1.57833-1.57833
		c-0.12823-0.12823-0.19988-0.30171-0.19988-0.48274V17.25761c0-0.18103,0.07166-0.35451,0.19988-0.48274l1.57833-1.57833
		c0.12823-0.12823,0.30171-0.19988,0.48274-0.19988h0.7744l1.35393-4.71929C5.6904,9.99263,5.84251,9.7412,6.04366,9.54006z"/>
	<g>
		<path style="fill:#FFFFFF;" d="M12.12316,22.29495c0.12823-0.12823,0.30171-0.19988,0.48274-0.19988l16.0555-0.00063
			c0.18103,0,0.35451,0.07166,0.48274,0.19988c0.12823,0.12823,0.19988,0.30171,0.19988,0.48274v12.04587
			c0,0.37714-0.30548,0.68262-0.68262,0.68262H12.60653c-0.37714,0-0.68262-0.30548-0.68262-0.68262l-0.00063-12.04524
			C11.92328,22.59667,11.99493,22.42318,12.12316,22.29495z M27.97878,23.45969l-14.69025,0.00063l0.00063,10.67999h14.68962
			V23.45969z"/>
		<path style="fill:#FFFFFF;" d="M28.17866,22.29433c0.04903-0.04903,0.10623-0.09114,0.17097-0.12446l7.09967-3.64506
			c0.21183-0.10874,0.46451-0.09994,0.66817,0.02451c0.2024,0.12446,0.32623,0.34508,0.32623,0.58268l-0.00063,19.33662
			c0.00063,0.23823-0.1232,0.46011-0.32686,0.58205c-0.20303,0.12509-0.45571,0.13388-0.66754,0.02514l-7.09904-3.64569
			c-0.33566-0.17223-0.46766-0.58331-0.29543-0.91896c0.17286-0.33503,0.58331-0.46766,0.91897-0.29543l6.10465,3.1353
			l0.00063-17.10144l-6.10528,3.13467c-0.33566,0.17223-0.74674,0.04023-0.91897-0.29543
			C27.91529,22.81792,27.97438,22.49861,28.17866,22.29433z"/>
		<path style="fill:#FFFFFF;" d="M12.12379,34.34019c0.12383-0.12383,0.29417-0.19989,0.48274-0.19989
			c0.37714,0,0.68262,0.30548,0.68262,0.68262V37.786h22.47129c0.37714,0,0.68262,0.30548,0.68262,0.68262
			c0,0.37714-0.30548,0.68262-0.68262,0.68262H12.60653c-0.37714,0-0.68262-0.30548-0.68262-0.68262v-3.64569
			C11.92391,34.63437,11.99996,34.46402,12.12379,34.34019z"/>
		<path style="fill:#FFFFFF;" d="M12.12316,18.64926c0.12383-0.12383,0.29417-0.19988,0.48274-0.19988h23.15517
			c0.37714,0,0.68262,0.30548,0.68262,0.68262c0,0.37714-0.30548,0.68262-0.68262,0.68262H13.28853v2.96307
			c0,0.37714-0.30548,0.68262-0.68262,0.68262c-0.37714,0-0.68262-0.30548-0.68262-0.68262V19.132
			C11.92328,18.94343,11.99933,18.77309,12.12316,18.64926z"/>
	</g>
	<path style="fill:#FFFFFF;" d="M4.68658,21.69467l1.22571-1.22571c0.12823-0.12823,0.30171-0.19988,0.48274-0.19988h6.21025
		c0.37714,0,0.68262,0.30548,0.68262,0.68262s-0.30548,0.68262-0.68262,0.68262H6.67788l-0.82594,0.82594v12.67569l0.82594,0.82594
		h5.92739c0.37714,0,0.68262,0.30548,0.68262,0.68262s-0.30548,0.68262-0.68262,0.68262H6.39503
		c-0.18103,0-0.35451-0.07166-0.48274-0.19989l-1.22571-1.2257c-0.12823-0.12823-0.19988-0.30172-0.19988-0.48274v-13.2414
		C4.48669,21.99639,4.55835,21.8229,4.68658,21.69467z"/>
	<path style="fill:#FFFFFF;" d="M37.665,34.09505L37.665,34.09505c0.12823-0.12823,0.30171-0.19989,0.48274-0.19989l4.59671,0.00063
		c0.37714,0,0.68262,0.30548,0.68262,0.68262s-0.30548,0.68262-0.68262,0.68262l-3.91409-0.00063v2.37598l3.91409,0.00063
		c0.37714,0,0.68262,0.30548,0.68262,0.68262s-0.30548,0.68262-0.68262,0.68262l-4.59671-0.00063
		c-0.37714,0-0.68262-0.30548-0.68262-0.68262v-3.74123C37.46512,34.39677,37.53677,34.22328,37.665,34.09505z"/>
	<path style="fill:#FFFFFF;" d="M37.665,18.59332c0.12383-0.12383,0.29417-0.19988,0.48274-0.19988l4.59671,0.00063
		c0.37714,0,0.68262,0.30548,0.68262,0.68262s-0.30548,0.68262-0.68262,0.68262l-3.91409-0.00063l-0.00063,2.38541h3.91472
		c0.37714,0,0.68262,0.30548,0.68262,0.68262s-0.30548,0.68262-0.68262,0.68262h-4.59734
		c-0.18103,0-0.35451-0.07166-0.48274-0.19989c-0.12823-0.12823-0.19989-0.30171-0.19989-0.48274l0.00063-3.75066
		C37.46512,18.88749,37.54181,18.71652,37.665,18.59332z"/>
	<path style="fill:#FFFFFF;" d="M4.28555,15.19654c0.12383-0.12383,0.29417-0.19988,0.48274-0.19988l35.69195-0.00063
		c0.37714,0,0.68262,0.30548,0.68262,0.68262s-0.30548,0.68262-0.68262,0.68262L4.76829,16.36191
		c-0.37714,0-0.68262-0.30548-0.68262-0.68262C4.08567,15.49071,4.16172,15.32037,4.28555,15.19654z"/>
	<path style="fill:#FFFFFF;" d="M4.26732,41.39335c0.12383-0.12383,0.29417-0.19989,0.48274-0.19989h35.71898
		c0.37714,0,0.68262,0.30548,0.68262,0.68262s-0.30548,0.68262-0.68262,0.68262H4.75006c-0.37714,0-0.68262-0.30548-0.68262-0.68262
		C4.06744,41.68752,4.1435,41.51718,4.26732,41.39335z"/>
</g>
</svg>
