<?xml version="1.0" encoding="iso-8859-1"?>
<!-- Generator: Adobe Illustrator 30.0.0, SVG Export Plug-In . SVG Version: 9.03 Build 0)  -->
<svg version="1.1" id="Layer_1" xmlns="http://www.w3.org/2000/svg" xmlns:xlink="http://www.w3.org/1999/xlink" x="0px" y="0px"
	 viewBox="0 0 400 160" style="enable-background:new 0 0 400 160;" xml:space="preserve">
<path style="fill:#9B41C6;" d="M393.8291,88.25488h-22.82324c-0.55273,0-1-0.44727-1-1v-3.99414
	c0-6.64062-0.13086-10.80127-1.9375-12.58105c-1.78223-1.75391-5.80469-1.81934-12.22754-1.71924h-43.2168v18.29443
	c0,0.55273-0.44727,1-1,1H173.96533c-0.37744,0-0.72314-0.21289-0.89307-0.5498l-6.22656-12.35303h-54.50049l-6.22656,12.35303
	c-0.16992,0.33691-0.51562,0.5498-0.89307,0.5498H8.64258c-0.55225,0-1-0.44727-1-1V11.11963c0-0.55225,0.44775-1,1-1h24.30664
	c0.55225,0,1,0.44775,1,1v55.72852H88.4126l29.73877-56.19629c0.17334-0.32764,0.51318-0.53223,0.88379-0.53223h41.45801
	c0.37207,0,0.71338,0.20654,0.88623,0.53613l30.88623,59.02783l53.90527-39.25l-50.604,0.74805
	c-0.25439,0.00684-0.52588-0.09961-0.71631-0.2876c-0.19092-0.18799-0.29834-0.44482-0.29834-0.7124V11.11963
	c0-0.55225,0.44775-1,1-1H355.9375c26.52539,0,26.52539,0,31.67285,3.11133c6.14746,3.74219,8.02051,9.03613,8.02051,22.66016
	c0,11.33301-1.22949,15.83203-5.26074,19.25439c-1.46484,1.16797-2.88965,1.96777-4.70898,2.56543
	c7.91992,2.104,9.56348,7.28076,9.16797,22.48877v7.05518C394.8291,87.80762,394.38184,88.25488,393.8291,88.25488z
	 M372.00586,86.25488h20.82324v-6.08105c0.44434-17.08545-1.30371-20.07764-12.46777-21.37305
	c-0.49902-0.05762-0.87793-0.47705-0.88477-0.97949s0.36035-0.93213,0.85742-1.00342c4.87695-0.70117,6.77832-1.6333,8.76562-3.2168
	c3.50977-2.97998,4.53125-6.95654,4.53125-17.70996c0-12.91846-1.58301-17.61768-7.05762-20.9502
	c-4.66699-2.82129-4.66699-2.82129-30.63574-2.82129H196.55225v17.04736l52.73975-0.77979
	c0.4209-0.01562,0.82617,0.27051,0.96289,0.68359c0.13867,0.41309-0.00781,0.86816-0.35938,1.125l-57.38965,41.78711
	c-0.23584,0.1709-0.53467,0.23145-0.81641,0.16504c-0.2832-0.06592-0.52393-0.25244-0.65869-0.50977L159.8877,12.11963h-40.25049
	L89.89844,68.31592c-0.17334,0.32764-0.51318,0.53223-0.88379,0.53223H32.94922c-0.55225,0-1-0.44775-1-1V12.11963H9.64258v74.13525
	h94.96729l6.22656-12.35303c0.16992-0.33691,0.51562-0.5498,0.89307-0.5498h55.73193c0.37744,0,0.72314,0.21289,0.89307,0.5498
	l6.22656,12.35303h136.04297V67.96045c0-0.55225,0.44727-1,1-1h44.20117c7.55762-0.12109,11.38672,0.06934,13.64551,2.29443
	c2.28516,2.24902,2.53516,6.18164,2.53516,14.00586V86.25488z M231.0459,69.98682c-0.43066,0-0.81348-0.27539-0.94922-0.68506
	c-0.1377-0.41357,0.00879-0.86865,0.3623-1.12451l57.41016-41.64062c0.30469-0.21973,0.70703-0.25098,1.04102-0.08105
	c0.33496,0.17041,0.5459,0.51465,0.5459,0.89062v40.84668c0,0.54688-0.43945,0.99219-0.98633,1l-57.41016,0.79395
	C231.05469,69.98682,231.05078,69.98682,231.0459,69.98682z M288.45605,68.19287h0.00977H288.45605z M287.45605,29.30664
	L234.1875,67.94336l53.26855-0.73682V29.30664z M159.354,58.6875h-39.40479c-0.34814,0-0.6709-0.18066-0.85254-0.47754
	c-0.18213-0.29688-0.19629-0.66699-0.03809-0.97705l14.72363-28.86914c0.17041-0.33496,0.51465-0.5459,0.89062-0.5459h9.95801
	c0.37598,0,0.72021,0.21094,0.89062,0.5459l14.72314,28.86963c0.1582,0.30957,0.14404,0.67969-0.03809,0.97656
	C160.0249,58.50684,159.70215,58.6875,159.354,58.6875z M121.58203,56.6875h36.13965l-13.70361-26.86963h-8.73291L121.58203,56.6875
	z M311.62402,49.89844c-0.55273,0-1-0.44775-1-1v-18.7168c0-0.55225,0.44727-1,1-1l44.19922,0.00146
	c10.86816,0.12109,11.07617,0.12354,12.97461,1.00586c3.0498,1.36963,3.66504,4.5083,3.66504,9.12598
	c0,4.64551-0.52734,7.65625-3.22266,9.29883c-0.00781,0.00439-0.01562,0.00928-0.02344,0.01367
	c-1.81738,1.04102-1.81738,1.04102-13.49219,1.271H311.62402z M312.62402,47.89844h43.08105
	c11.10938-0.21875,11.14355-0.21924,12.50488-0.99902c1.46094-0.89502,2.25293-2.375,2.25293-7.58447
	c0-5.17334-0.91504-6.59668-2.49707-7.30713c-1.50586-0.69971-1.61914-0.70752-12.16504-0.8252l-0.10645-0.00098h-43.07031V47.89844
	z M368.71973,47.75977h0.00977H368.71973z"/>
<g>
	<path style="fill:#9B41C6;" d="M5.37976,105.59467h32.72948c11.56759,0,13.13262,0.06681,17.01117,0.88335
		c4.49095,0.88335,7.48491,3.47151,8.84581,7.68781c1.01943,3.19934,1.29161,6.05721,1.29161,13.47532
		c0,11.8373-1.01943,16.46434-4.35362,19.52759c-3.47028,3.13005-7.48491,3.8105-22.79496,3.8105H5.37976V105.59467z
		 M38.24533,139.41164c12.52022,0,13.4048-0.68045,13.4048-10.95395c0-5.58215-0.47631-8.09856-1.83721-9.59554
		c-1.42894-1.63307-3.26614-1.90525-11.70368-1.90525H18.98869v22.45474H38.24533z"/>
	<path style="fill:#9B41C6;" d="M105.34232,105.59467h33.41116c15.65027,0,15.65027,0,18.57495,1.76669
		c3.47151,2.11062,4.49342,5.10458,4.49342,12.99776c0,6.59909-0.68292,9.11798-2.92715,11.02324
		c-1.3609,1.08871-2.65498,1.63307-5.51039,2.04134c7.00737,0.81653,8.23218,2.85788,7.95999,13.33675v4.21878h-13.60893v-2.38034
		c0-8.77899-0.47754-9.25406-9.04869-9.12045h-19.53006v11.50079h-13.8143V105.59467z M138.61739,128.11623
		c6.80447-0.13609,6.80447-0.13609,7.7571-0.68045c1.22481-0.74973,1.63307-2.04134,1.63307-5.03531
		s-0.47755-4.28558-1.83844-4.89922c-1.01944-0.47507-1.15553-0.47507-7.55173-0.54436h-19.46077v11.15933H138.61739z"/>
	<path style="fill:#9B41C6;" d="M216.25015,105.59467v45.38456h-14.49228v-45.38456H216.25015z"/>
	<path style="fill:#9B41C6;" d="M305.06699,105.59467v10.68178h-34.15842v8.57362h32.52536l-0.06931,10.41207h-32.45605v15.71709
		h-13.8143v-45.38456H305.06699z"/>
	<path style="fill:#9B41C6;" d="M397.05347,105.59467v11.56512h-20.20801v33.81944h-14.49228v-33.81944h-20.21051v-11.56512
		H397.05347z"/>
</g>
</svg>
