<?xml version="1.0" encoding="iso-8859-1"?>
<!-- Generator: Adobe Illustrator 29.8.2, SVG Export Plug-In . SVG Version: 9.03 Build 0)  -->
<svg version="1.1" id="Layer_1" xmlns="http://www.w3.org/2000/svg" xmlns:xlink="http://www.w3.org/1999/xlink" x="0px" y="0px"
	 viewBox="0 0 64 48" style="enable-background:new 0 0 64 48;" xml:space="preserve">
<path style="fill:#404040;" d="M21.69044,9.21881H8.84384c-1.0862,0-1.96674-0.88054-1.96674-1.96674V2.34335
	c0-1.0862,0.88054-1.96674,1.96674-1.96674h12.8466c1.0862,0,1.96674,0.88054,1.96674,1.96674v4.90872
	C23.65718,8.33827,22.77664,9.21881,21.69044,9.21881z"/>
<path style="fill:#404040;" d="M49.24334,9.21881h-12.8466c-1.0862,0-1.96674-0.88054-1.96674-1.96674V2.34335
	c0-1.0862,0.88054-1.96674,1.96674-1.96674h12.8466c1.0862,0,1.96674,0.88054,1.96674,1.96674v4.90872
	C51.21008,8.33827,50.32954,9.21881,49.24334,9.21881z"/>
<path style="fill:#404040;" d="M21.69044,47.74912H8.84384c-1.0862,0-1.96674-0.88054-1.96674-1.96674v-4.90872
	c0-1.0862,0.88054-1.96674,1.96674-1.96674h12.8466c1.0862,0,1.96674,0.88054,1.96674,1.96674v4.90872
	C23.65718,46.86858,22.77664,47.74912,21.69044,47.74912z"/>
<path style="fill:#404040;" d="M49.24334,47.74912h-12.8466c-1.0862,0-1.96674-0.88054-1.96674-1.96674v-4.90872
	c0-1.0862,0.88054-1.96674,1.96674-1.96674h12.8466c1.0862,0,1.96674,0.88054,1.96674,1.96674v4.90872
	C51.21008,46.86858,50.32954,47.74912,49.24334,47.74912z"/>
<path style="fill:#E00035;" d="M63.04999,18.22998V29.88c0,0.20996-0.01001,0.40997-0.02997,0.62
	c-0.03003,0.33997-0.08002,0.66998-0.16003,1c-0.21997,0.91998-0.63,1.78998-1.20001,2.56
	c-2.00995,2.70996-3.62994,4.23999-5.92999,6.03998c-1.71997,1.34003-3.82996,2.06-6,2.06H8.27002c-1.12,0-2.22003-0.38-3.12-1.06
	c-0.89001-0.67999-1.62-1.38-2.37-2.27997c-0.95001-1.16003-1.46002-2.61005-1.46002-4.11005v-21.38
	c0-1.44995,0.46002-2.85999,1.37-3.98999c0.73999-0.90997,1.47998-1.65997,2.47998-2.44c0.89001-0.69,1.98999-1.06,3.12-1.06h41.38
	c2.25,0,4.44,0.77002,6.17004,2.20001C55.92999,8.12,56.03003,8.19,56.12,8.26996c2.13,1.77002,3.69,3.42004,5.41998,5.62006
	c0.11005,0.13995,0.21002,0.27997,0.30005,0.42999C62.28998,14.98999,62.63,15.71997,62.82001,16.5
	c0.08997,0.32996,0.14996,0.65997,0.19,1C63.03998,17.73999,63.04999,17.97998,63.04999,18.22998z"/>
<path style="fill:#6DC2BE;" d="M61.84003,14.32001C61.52002,14.82996,60.85999,15,60.32001,14.70996l-3.89001-2.09998
	c-1.04999-0.57001-1.47998-1.85999-0.96997-2.94L56.12,8.26996c2.13,1.77002,3.69,3.42004,5.41998,5.62006
	C61.65002,14.02997,61.75,14.16998,61.84003,14.32001z"/>
<path style="fill:#6DC2BE;" d="M61.84003,33.81422c-0.32001-0.50995-0.98004-0.67999-1.52002-0.38995l-3.89001,2.09998
	c-1.04999,0.57001-1.47998,1.85999-0.96997,2.94L56.12,39.86427c2.13-1.77002,3.69-3.42004,5.41998-5.62006
	C61.65002,34.10426,61.75,33.96425,61.84003,33.81422z"/>
<rect x="1.32" y="19.32" style="fill:#F2A841;" width="61.73" height="9.36"/>
<path style="fill:#F2A841;" d="M1.32001,30.5v1h61.53998c0.08002-0.33002,0.13-0.66003,0.16003-1H1.32001z M62.82001,16.5h-61.5v1
	h61.69C62.96997,17.15997,62.90997,16.82996,62.82001,16.5z"/>
<path style="fill:#404040;" d="M51.96733,35.33032l-10.22384,1.67393c1.84257-9.05072,1.9709-17.53165,0-26.00849l10.22384,1.67392
	c2.17671,0.35639,3.84329,2.60416,3.84329,5.04034v12.57996C55.81062,32.72615,54.14405,34.97393,51.96733,35.33032z"/>
<path style="fill:#404040;" d="M8.71397,11.18886l6.00054,0c-0.96461,8.82382-1.0335,17.3848,0,25.62228H8.71397
	c-1.51391,0-2.74118-2.36433-2.74118-5.28088V16.46975C5.97279,13.55319,7.20006,11.18886,8.71397,11.18886z"/>
</svg>
