<?xml version="1.0" encoding="iso-8859-1"?>
<!-- Generator: Adobe Illustrator 30.0.0, SVG Export Plug-In . SVG Version: 9.03 Build 0)  -->
<svg version="1.1" id="Layer_3" xmlns="http://www.w3.org/2000/svg" xmlns:xlink="http://www.w3.org/1999/xlink" x="0px" y="0px"
	 viewBox="0 0 64 34.83261" style="enable-background:new 0 0 64 34.83261;" xml:space="preserve">
<polygon style="fill:#2A103B;" points="0.72219,5.74793 5.67766,4.89842 9.00491,0.93404 19.97774,1.14642 21.81834,3.05781 
	41.21547,3.27019 44.04716,1.00483 55.30316,1.14642 58.06407,3.48257 61.24973,4.75683 61.88686,5.81872 63.16112,11.05736 
	63.2188,23.07374 61.67448,29.46339 60.68339,30.66686 57.92248,31.37479 55.01999,33.78173 44.04716,33.92331 41.28626,31.65796 
	21.67675,31.72875 19.48219,33.71094 8.86332,33.71094 5.39449,29.74656 0.86378,29.03864 "/>
<g>
	<path style="fill:#FFFFFF;" d="M0.21311,28.68151V6.1511c0-0.5674,0.4245-1.04836,0.98772-1.11911l3.97458-0.49665L7.90297,1.1881
		c0.33877-0.41579,0.84064-0.65453,1.37667-0.65453h10.07029c0.58204,0,1.12295,0.28265,1.45544,0.75839l1.21496,1.37493h19.11939
		l1.83115-1.58579c0.28719-0.33005,0.77094-0.54753,1.27839-0.54753h10.31077c0.42102,0,0.82949,0.15021,1.15013,0.42276
		l2.50451,2.12914l2.11206,0.59145c1.07834,0.30147,1.92107,1.16338,2.1992,2.24903l0.66777,2.60941
		c0.39383,1.53978,0.59319,3.12557,0.59319,4.7138v8.33428c0,1.58788-0.19936,3.17367-0.59319,4.71346l-0.66777,2.60976
		c-0.27813,1.086-1.12086,1.94826-2.1992,2.24938l-2.11206,0.5911l-2.50451,2.12879
		c-0.31994,0.27255-0.72911,0.42311-1.15013,0.42311H44.24927c-0.50676,0-0.99051-0.21748-1.32788-0.59668l-1.78166-1.53699
		H22.02033l-1.21496,1.37528c-0.33249,0.47539-0.8734,0.75839-1.45544,0.75839H9.27964c-0.53603,0-1.03791-0.23839-1.37667-0.65453
		l-2.72756-3.34724l-3.97388-0.497C0.63831,29.73057,0.21311,29.24891,0.21311,28.68151z M62.71622,13.24916
		c0-1.49866-0.1882-2.99557-0.55973-4.44858l-0.66777-2.60906c-0.18332-0.71622-0.73957-1.28466-1.45056-1.48367l-2.22498-0.62316
		c-0.07458-0.02091-0.14359-0.05751-0.20214-0.10769L55.0173,1.77223c-0.12756-0.10839-0.28997-0.16799-0.45726-0.16799H44.24927
		c-0.20145,0-0.39383,0.08643-0.52767,0.237l-2.0319,1.76563c-0.09759,0.08434-0.22166,0.1307-0.35062,0.1307H21.77915
		c-0.15335,0-0.29973-0.06587-0.4008-0.18088l-1.39689-1.58056c-0.01603-0.01812-0.03137-0.03729-0.04461-0.05751
		c-0.13104-0.19692-0.35062-0.31437-0.58692-0.31437H9.27964c-0.2133,0-0.41196,0.0948-0.54718,0.26L5.86967,5.37807
		c-0.08643,0.107-0.2119,0.17601-0.34853,0.19308L1.33397,6.09429C1.30539,6.09777,1.28378,6.12217,1.28378,6.1511v22.53041
		c0,0.02928,0.02091,0.05298,0.05019,0.05646l4.18718,0.52349c0.13662,0.01673,0.26209,0.08643,0.34853,0.19308l2.86279,3.51383
		c0.13523,0.1652,0.33389,0.26,0.54718,0.26h10.07029c0.2363,0,0.45587-0.1178,0.58692-0.31437
		c0.01324-0.02021,0.02788-0.03903,0.04391-0.05785l1.39689-1.58091c0.10177-0.11502,0.24815-0.18054,0.4015-0.18054h19.55993
		c0.12896,0,0.25303,0.0467,0.35062,0.13035l1.98241,1.71683c0.18333,0.20005,0.37571,0.28649,0.57716,0.28649h10.31077
		c0.16729,0,0.3297-0.05994,0.45657-0.16799l2.59442-2.20477c0.05855-0.05019,0.12756-0.08713,0.20214-0.10804l2.22498-0.62316
		c0.71169-0.19866,1.26724-0.76676,1.45056-1.48332l0.66777-2.60906c0.37153-1.45335,0.55973-2.94992,0.55973-4.44858V13.24916z"/>
	<path style="fill:#FFFFFF;" d="M21.16017,25.59009V9.24286c0-0.14394,0.05786-0.28196,0.16102-0.38268
		c0.10316-0.10072,0.24188-0.15579,0.38617-0.15265l13.4224,0.29381c0.29067,0.00662,0.52348,0.24432,0.52348,0.53533v15.75926
		c0,0.29137-0.23281,0.52906-0.52348,0.53534l-13.4224,0.29416c-0.14429,0.00279-0.283-0.05228-0.38617-0.15265
		C21.21803,25.8717,21.16017,25.73438,21.16017,25.59009z M22.23084,9.79005v15.25286l12.35173-0.27046V10.0605L22.23084,9.79005z"
		/>
	<path style="fill:#FFFFFF;" d="M21.16017,9.24286V6.01064c0-0.29555,0.23979-0.53533,0.53533-0.53533h18.96953
		c0.23839,0,0.44751,0.15719,0.51373,0.38582c0.06692,0.22794-0.02579,0.47399-0.22654,0.60121l-5.54713,3.52603
		c-0.24954,0.15858-0.58064,0.08504-0.73887-0.1645s-0.08504-0.58064,0.16451-0.73887l3.9941-2.53901H22.23084v2.69689
		c0,0.29555-0.23979,0.53533-0.53534,0.53533C21.39996,9.7782,21.16017,9.53841,21.16017,9.24286z"/>
	<path style="fill:#FFFFFF;" d="M21.16017,28.78816v-3.23222c0-0.29555,0.23979-0.53534,0.53533-0.53534
		c0.29555,0,0.53534,0.23979,0.53534,0.53534v2.69689h16.59398l-3.9941-2.53866c-0.24955-0.15823-0.32273-0.48863-0.16451-0.73887
		c0.15823-0.24954,0.48933-0.32343,0.73887-0.16451l5.54713,3.52568c0.20075,0.12686,0.29416,0.36874,0.22654,0.60155
		c-0.06622,0.22794-0.27534,0.38547-0.51373,0.38547H21.6955C21.39996,29.32349,21.16017,29.08371,21.16017,28.78816z"/>
	<path style="fill:#FFFFFF;" d="M40.1297,28.78816c0-0.06273,0.01115-0.12617,0.03415-0.1882
		c2.92204-7.79302,2.92622-15.32535,0.00628-22.38473c-0.11153-0.2729,0.01743-0.58622,0.28997-0.69914
		c0.27324-0.11327,0.58691,0.01673,0.69984,0.28997c3.02589,7.31659,3.02799,15.1124,0.00628,23.1703
		c-0.10386,0.27673-0.41265,0.41684-0.68938,0.31298C40.26214,29.20848,40.1297,29.00494,40.1297,28.78816z"/>
	<path style="fill:#FFFFFF;" d="M8.22013,6.01064c0-0.29555,0.23979-0.53533,0.53533-0.53533H21.6955
		c0.29555,0,0.53534,0.23979,0.53534,0.53533s-0.23979,0.53534-0.53534,0.53534H8.75546
		C8.45991,6.54598,8.22013,6.30619,8.22013,6.01064z"/>
	<path style="fill:#FFFFFF;" d="M6.18962,9.53667c0-0.29555,0.23979-0.53533,0.53533-0.53533H18.0095
		c0.29555,0,0.53533,0.23979,0.53533,0.53533s-0.23978,0.53533-0.53533,0.53533H6.72495
		C6.4294,10.07201,6.18962,9.83222,6.18962,9.53667z"/>
	<path style="fill:#FFFFFF;" d="M6.18962,13.06235c0-0.29555,0.23979-0.53533,0.53533-0.53533H18.0095
		c0.29555,0,0.53533,0.23979,0.53533,0.53533s-0.23978,0.53533-0.53533,0.53533H6.72495
		C6.4294,13.59769,6.18962,13.3579,6.18962,13.06235z"/>
	<path style="fill:#FFFFFF;" d="M6.18962,21.36875c0-0.29555,0.23979-0.53534,0.53533-0.53534H18.0095
		c0.29555,0,0.53533,0.23979,0.53533,0.53534s-0.23978,0.53534-0.53533,0.53534H6.72495
		C6.4294,21.90409,6.18962,21.6643,6.18962,21.36875z"/>
	<path style="fill:#FFFFFF;" d="M6.18962,17.39975c0-0.29555,0.23979-0.53533,0.53533-0.53533H18.0095
		c0.29555,0,0.53533,0.23978,0.53533,0.53533s-0.23978,0.53534-0.53533,0.53534H6.72495
		C6.4294,17.93508,6.18962,17.6953,6.18962,17.39975z"/>
	<path style="fill:#FFFFFF;" d="M6.18962,25.26248c0-0.29555,0.23979-0.53533,0.53533-0.53533H18.0095
		c0.29555,0,0.53533,0.23978,0.53533,0.53533s-0.23978,0.53534-0.53533,0.53534H6.72495
		C6.4294,25.79781,6.18962,25.55803,6.18962,25.26248z"/>
	<path style="fill:#FFFFFF;" d="M8.22013,28.78816c0-0.29555,0.23979-0.53534,0.53533-0.53534H21.6955
		c0.29555,0,0.53534,0.23979,0.53534,0.53534s-0.23979,0.53533-0.53534,0.53533H8.75546
		C8.45991,29.32349,8.22013,29.08371,8.22013,28.78816z"/>
	<path style="fill:#FFFFFF;" d="M40.1297,28.78746c0-0.27324,0.20842-0.50676,0.48584-0.53255l15.41109-1.43523
		c2.66761-6.40241,2.6697-12.572,0.00209-18.84023L40.61554,6.54354C40.32139,6.516,40.106,6.24764,40.13179,5.96115
		c0.02788-0.2945,0.28858-0.51094,0.58273-0.4834l15.72964,1.4652c0.19378,0.01778,0.36246,0.13976,0.44053,0.31786
		c2.91716,6.65579,2.91785,13.47642,0.00209,20.27336c-0.07737,0.17984-0.24746,0.30391-0.44263,0.32204l-15.72964,1.4652
		c-0.29416,0.02719-0.55485-0.1889-0.58273-0.48375C40.13039,28.82092,40.1297,28.80419,40.1297,28.78746z"/>
	<path style="fill:#FFFFFF;" d="M47.10787,20.96377v-7.12839c0-0.27638,0.21051-0.50745,0.48585-0.5329l5.64959-0.52592
		c0.29416-0.02753,0.55485,0.1889,0.58273,0.4834c0.02509,0.29032-0.1896,0.5552-0.48375,0.58239l-5.16375,0.48096v6.15252
		l5.16375,0.48027c0.29416,0.02718,0.50745,0.29137,0.48375,0.58273c-0.02788,0.29416-0.28858,0.51094-0.58273,0.48375
		l-5.64959-0.52558C47.31838,21.47122,47.10787,21.2405,47.10787,20.96377z"/>
	<path style="fill:#FFFFFF;" d="M3.14769,27.02532V7.77383c0-0.29555,0.23979-0.53534,0.53533-0.53534
		s0.53533,0.23979,0.53533,0.53534v19.25149c0,0.29555-0.23979,0.53533-0.53533,0.53533S3.14769,27.32087,3.14769,27.02532z"/>
	<path style="fill:#FFFFFF;" d="M55.85934,27.32226c0-0.27743,0.214-0.51163,0.49491-0.53324l2.18665-0.1645l1.87228-4.09796
		c0.08016-0.17496,0.24746-0.29346,0.43845-0.31088l2.2696-0.20842c0.29416-0.02719,0.55485,0.1896,0.58204,0.48445
		c0.02509,0.28928-0.1896,0.55485-0.48445,0.58204l-1.96011,0.17984l-1.87506,4.10353
		c-0.08155,0.17775-0.25233,0.29694-0.44681,0.31158l-2.50171,0.1882c-0.29485,0.0223-0.55206-0.19866-0.57437-0.49351
		C55.86003,27.34945,55.85934,27.3362,55.85934,27.32226z"/>
	<path style="fill:#FFFFFF;" d="M55.85934,7.47898c0-0.01359,0.0007-0.02718,0.0014-0.04078
		c0.0223-0.29485,0.27951-0.51582,0.57437-0.49386l2.50171,0.1882c0.19448,0.01464,0.36526,0.13418,0.44681,0.31158l1.87506,4.10388
		l1.96011,0.17984c0.29485,0.02718,0.51303,0.28718,0.48445,0.58204c-0.02719,0.2945-0.28788,0.51129-0.58204,0.48445
		l-2.2696-0.20842c-0.19099-0.01777-0.35828-0.13627-0.43845-0.31088l-1.87228-4.09831l-2.18665-0.1645
		C56.07333,7.99096,55.85934,7.7564,55.85934,7.47898z"/>
</g>
</svg>
